<?xml version="1.0" encoding="UTF-8" standalone="no" ?>
<!DOCTYPE svg PUBLIC "-//W3C//DTD SVG 1.1//EN" "http://www.w3.org/Graphics/SVG/1.1/DTD/svg11.dtd">
<svg xmlns="http://www.w3.org/2000/svg" xmlns:xlink="http://www.w3.org/1999/xlink" version="1.1" width="1280" height="1024" viewBox="0 0 1280 1024" xml:space="preserve">
<desc>Created with Fabric.js 5.3.0</desc>
<defs>
</defs>
<g transform="matrix(1 0 0 1 640 512)" id="background-logo"  >
<rect style="stroke: none; stroke-width: 0; stroke-dasharray: none; stroke-linecap: butt; stroke-dashoffset: 0; stroke-linejoin: miter; stroke-miterlimit: 4; fill: rgb(255,255,255); fill-rule: nonzero; opacity: 1;"  paint-order="stroke"  x="-640" y="-512" rx="0" ry="0" width="1280" height="1024" />
</g>
<g transform="matrix(2.1264707071562468 0 0 2.1264707071562468 261.004375 512)" id="logo-logo"  >
<g style=""  paint-order="stroke"   >
		<g transform="matrix(0.5151421888748958 0 0 0.5151421888748957 9.517251939463677 28.016007941961192)"  >
<path style="stroke: none; stroke-width: 1; stroke-dasharray: none; stroke-linecap: butt; stroke-dashoffset: 0; stroke-linejoin: miter; stroke-miterlimit: 4; fill: rgb(0,0,0); fill-rule: nonzero; opacity: 1;"  paint-order="stroke"  transform=" translate(-268.47, -304.4)" d="M 252.47 320.4 L 284.47 320.4 L 284.47 288.4 L 252.47000000000003 288.4 L 252.47000000000003 320.4 z M 254.47 290.4 L 282.47 290.4 L 282.47 318.4 L 254.47000000000003 318.4 L 254.47000000000003 290.4 z" stroke-linecap="round" />
</g>
		<g transform="matrix(0.5151421888748958 0 0 0.5151421888748957 -10.892681583759668 7.606074418737904)"  >
<rect style="stroke: none; stroke-width: 0; stroke-dasharray: none; stroke-linecap: butt; stroke-dashoffset: 0; stroke-linejoin: miter; stroke-miterlimit: 4; fill: rgb(0,0,0); fill-rule: nonzero; opacity: 1;"  paint-order="stroke"  x="-16" y="-16" rx="0" ry="0" width="32" height="32" />
</g>
		<g transform="matrix(0.5151421888748958 0 0 0.5151421888748957 9.517251939463677 7.606074418737904)"  >
<path style="stroke: none; stroke-width: 1; stroke-dasharray: none; stroke-linecap: butt; stroke-dashoffset: 0; stroke-linejoin: miter; stroke-miterlimit: 4; fill: rgb(0,0,0); fill-rule: nonzero; opacity: 1;"  paint-order="stroke"  transform=" translate(-268.47, -264.78000000000003)" d="M 252.47 248.78 L 252.47 278.61 L 252.47 280.78000000000003 L 284.47 280.78000000000003 L 284.47 248.78000000000003 L 282.31 248.78000000000003 L 252.47 248.78000000000003 z M 282.46 252.2 L 282.46 278.78 L 255.88 278.78 L 282.46 252.2 z" stroke-linecap="round" />
</g>
		<g transform="matrix(0.5151421888748958 0 0 0.5151421888748957 -10.892681583759668 28.016007941961192)"  >
<path style="stroke: none; stroke-width: 1; stroke-dasharray: none; stroke-linecap: butt; stroke-dashoffset: 0; stroke-linejoin: miter; stroke-miterlimit: 4; fill: rgb(0,0,0); fill-rule: nonzero; opacity: 1;"  paint-order="stroke"  transform=" translate(-228.85, -304.4)" d="M 212.85 288.4 L 212.85 318.22999999999996 L 212.85 320.4 L 244.85 320.4 L 244.85 288.4 L 242.68 288.4 L 212.85 288.4 z M 242.85 291.81 L 242.85 318.39 L 216.26 318.39 L 242.85 291.81 z" stroke-linecap="round" />
</g>
		<g transform="matrix(0.5151421888748958 0 0 0.5151421888748957 0 2.842171e-14)"  >
<path style="stroke: none; stroke-width: 1; stroke-dasharray: none; stroke-linecap: butt; stroke-dashoffset: 0; stroke-linejoin: miter; stroke-miterlimit: 4; fill: rgb(0,0,0); fill-rule: nonzero; opacity: 1;"  paint-order="stroke"  transform=" translate(-249.99500000000003, -250.015)" d="M 386.29 115.96 L 386.29 113.96 L 351.27000000000004 113.96 L 351.27000000000004 100.61999999999999 L 349.27000000000004 100.61999999999999 L 349.27000000000004 113.96 L 323.7 113.96 L 323.7 100.61999999999999 L 321.7 100.61999999999999 L 321.7 113.96 L 175.61 113.96 L 175.61 100.61999999999999 L 173.61 100.61999999999999 L 173.61 113.96 L 148.04000000000002 113.96 L 148.04000000000002 100.61999999999999 L 146.04000000000002 100.61999999999999 L 146.04000000000002 113.96 L 114.71000000000002 113.96 L 114.71000000000002 115.96 L 146.04000000000002 115.96 L 146.04000000000002 136.63 L 114.71000000000002 136.63 L 114.71000000000002 138.63 L 146.04000000000002 138.63 L 146.04000000000002 204.45999999999998 L 114.15000000000002 225.59999999999997 L 113.70000000000002 225.89999999999998 L 113.70000000000002 261.80999999999995 L 146.03000000000003 240.37999999999994 L 146.03000000000003 361.4 L 114.7 361.4 L 114.7 363.4 L 146.03 363.4 L 146.03 384.07 L 114.7 384.07 L 114.7 386.07 L 146.03 386.07 L 146.03 399.40999999999997 L 148.03 399.40999999999997 L 148.03 386.07 L 173.6 386.07 L 173.6 399.40999999999997 L 175.6 399.40999999999997 L 175.6 386.07 L 321.7 386.07 L 321.7 399.40999999999997 L 323.7 399.40999999999997 L 323.7 386.07 L 349.27 386.07 L 349.27 399.40999999999997 L 351.27 399.40999999999997 L 351.27 386.07 L 386.28999999999996 386.07 L 386.28999999999996 384.07 L 351.27 384.07 L 351.27 363.4 L 386.28999999999996 363.4 L 386.28999999999996 361.4 L 351.27 361.4 L 351.27 240.36 L 383.59999999999997 261.79 L 383.59999999999997 225.88000000000002 L 351.27 204.45000000000002 L 351.27 138.62 L 386.28999999999996 138.62 L 386.28999999999996 136.62 L 351.27 136.62 L 351.27 115.95 L 386.29 115.96 L 386.29 115.96 z M 321.7 115.96 L 321.7 136.63 L 249.65999999999997 136.63 L 249.65999999999997 135.76999999999998 L 248.65999999999997 136.42999999999998 L 247.65999999999997 135.76999999999998 L 247.65999999999997 136.63 L 175.61999999999995 136.63 L 175.61999999999995 115.96 C 175.62 115.96 321.7 115.96 321.7 115.96 z M 381.61 258.07 L 351.28000000000003 237.95999999999998 L 351.28000000000003 209.20999999999998 L 351.28000000000003 206.84999999999997 L 381.61 226.95999999999998 L 381.61 258.07 z M 175.61 138.62 L 245.33 138.62 L 175.61 184.84 L 175.61 138.62 z M 349.27 209.21 L 349.27 210.21 L 349.27 211.21 L 349.27 236.64000000000001 L 323.7 219.69000000000003 L 323.7 211.22000000000003 L 323.7 210.22000000000003 L 323.7 209.22000000000003 L 323.7 188.58000000000004 L 349.27 205.53000000000003 L 349.27 209.21 z M 321.7 209.21 L 321.7 218.36 L 249.65999999999997 170.60000000000002 L 249.65999999999997 139.49 L 321.7 187.25 L 321.7 209.21 z M 175.61 220.75 L 248.65000000000003 172.32999999999998 L 321.69000000000005 220.75 L 321.69000000000005 361.37 L 175.61 361.37 L 175.61 220.75 z M 349.27 361.38 L 323.7 361.38 L 323.7 222.07999999999998 L 349.27 239.02999999999997 L 349.27 361.38 L 349.27 361.38 z M 321.7 184.84 L 251.98 138.62 L 321.7 138.62 L 321.7 184.84 z M 148.04 115.96 L 173.60999999999999 115.96 L 173.60999999999999 136.63 L 148.04 136.63 L 148.04 115.96 L 148.04 115.96 z M 148.04 138.62 L 173.60999999999999 138.62 L 173.60999999999999 186.17000000000002 L 148.04 203.12 L 148.04 138.62 L 148.04 138.62 z M 148.04 384.04 L 148.04 363.37 L 173.60999999999999 363.37 L 173.60999999999999 384.04 L 148.04 384.04 z M 175.61 384.04 L 175.61 363.37 L 321.7 363.37 L 321.7 384.04 L 175.61 384.04 z M 349.27 384.04 L 323.7 384.04 L 323.7 363.37 L 349.27 363.37 L 349.27 384.04 L 349.27 384.04 z M 349.27 203.12 L 323.7 186.17000000000002 L 323.7 138.62 L 349.27 138.62 L 349.27 203.12 z M 349.27 136.62 L 323.7 136.62 L 323.7 115.95 L 349.27 115.95 L 349.27 136.62 L 349.27 136.62 z" stroke-linecap="round" />
</g>
</g>
</g>
<g transform="matrix(1.9211538461538462 0 0 1.9211538461538462 823.6382983259787 495.37482076215554)" id="text-logo"  >
<g style=""  paint-order="stroke"   >
		<g transform="matrix(1 0 0 1 5.684342e-14 0)" id="text-logo-path-0"  >
<path style="stroke: none; stroke-width: 0; stroke-dasharray: none; stroke-linecap: butt; stroke-dashoffset: 0; stroke-linejoin: miter; stroke-miterlimit: 4; fill: rgb(0,0,0); fill-rule: nonzero; opacity: 1;"  paint-order="stroke"  transform=" translate(-170.555, 17.5)" d="M 18.48 0 L 24.08 0 L 24.08 -43.75 L 39.48 -43.75 L 39.48 -49 L 3.08 -49 L 3.08 -43.75 L 18.48 -43.75 Z M 77.91 -4.2 C 70.28 -4.2 64.89 -9.66 64.89 -17.57 C 64.89 -25.41 70.28 -30.8 77.91 -30.8 C 85.54 -30.8 90.93 -25.41 90.93 -17.57 C 90.93 -9.66 85.54 -4.2 77.91 -4.2 Z M 59.64 -17.57 C 59.64 -7.49 67.9 0.7 77.91 0.7 C 87.92 0.7 96.18 -7.49 96.18 -17.57 C 96.18 -27.51 87.92 -35.7 77.91 -35.7 C 67.9 -35.7 59.64 -27.51 59.64 -17.57 Z M 116.34 -35 L 116.34 8.75 C 116.34 11.69 118.65 14 121.59 14 L 121.59 -4.76 C 124.95 -1.4 129.57 0.7 134.61 0.7 C 144.62 0.7 152.88 -7.49 152.88 -17.57 C 152.88 -27.51 144.62 -35.7 134.61 -35.7 C 129.5 -35.7 124.88 -33.6 121.59 -30.24 C 121.31 -32.9 119.14 -35 116.34 -35 Z M 121.59 -17.57 C 121.59 -25.41 126.98 -30.8 134.61 -30.8 C 142.24 -30.8 147.63 -25.41 147.63 -17.57 C 147.63 -9.66 142.24 -4.2 134.61 -4.2 C 126.98 -4.2 121.59 -9.66 121.59 -17.57 Z M 173.04 -49 L 173.04 0 L 178.64 0 L 178.64 -21.91 L 208.04 -21.91 L 208.04 0 L 213.64 0 L 213.64 -49 L 208.04 -49 L 208.04 -27.16 L 178.64 -27.16 L 178.64 -49 Z M 233.8 -35 L 233.8 -17.43 C 233.8 -5.32 239.26 0.7 249.27 0.7 C 254.38 0.7 257.95 -1.47 260.19 -4.83 C 260.4 -2.1 262.64 0 265.44 0 L 265.44 -29.75 C 265.44 -32.69 263.13 -35 260.19 -35 L 260.19 -17.43 C 260.19 -9.59 256.9 -4.2 249.27 -4.2 C 241.64 -4.2 239.05 -8.47 239.05 -17.43 L 239.05 -29.75 C 239.05 -32.69 236.74 -35 233.8 -35 Z M 290.85 -39.2 L 290.85 -43.75 C 290.85 -46.69 288.54 -49 285.6 -49 L 285.6 -44.45 C 285.6 -41.51 287.91 -39.2 290.85 -39.2 Z M 285.6 -5.25 C 285.6 -2.31 287.91 0 290.85 0 L 290.85 -29.75 C 290.85 -32.69 288.54 -35 285.6 -35 Z M 315.77 -10.01 L 311.01 -7.91 C 313.25 -3.15 318.22 0.7 324.52 0.7 C 333.13 0.7 338.03 -4.97 338.03 -9.94 C 338.03 -17.08 330.4 -18.9 324.87 -20.37 C 319.83 -21.7 316.75 -22.75 316.75 -25.69 C 316.75 -28.91 320.11 -30.8 323.68 -30.8 C 329.35 -30.8 330.68 -28.56 331.73 -25.83 L 336.63 -27.65 C 335.37 -30.73 332.57 -35.7 323.68 -35.7 C 318.36 -35.7 311.5 -31.99 311.5 -25.69 C 311.5 -19.18 318.15 -17.08 323.47 -15.61 C 328.93 -14.14 332.78 -13.23 332.78 -9.94 C 332.78 -7 330.26 -4.2 324.52 -4.2 C 320.32 -4.2 317.45 -6.44 315.77 -10.01 Z" stroke-linecap="round" />
</g>
</g>
</g>
<g transform="matrix(1.9211538461538462 0 0 1.9211538461538462 817.321203701993 583.5627913053327)" id="tagline-959570a9-1851-4691-b9ca-5a44108048dd-logo"  >
<g style=""  paint-order="stroke"   >
		<g transform="matrix(1 0 0 1 0 0)" id="tagline-959570a9-1851-4691-b9ca-5a44108048dd-logo-path-0"  >
<path style="stroke: none; stroke-width: 0; stroke-dasharray: none; stroke-linecap: butt; stroke-dashoffset: 0; stroke-linejoin: miter; stroke-miterlimit: 4; fill: rgb(0,0,0); fill-rule: nonzero; opacity: 1;"  paint-order="stroke"  transform=" translate(-159.77999999999997, 5.25)" d="M 4.65 0.15 C 6.81 0.15 8.61 -1.65 8.61 -3.84 L 8.61 -10.5 L 7.41 -10.5 L 7.41 -3.76 C 7.41 -2.23 6.15 -0.97 4.65 -0.97 C 3.12 -0.97 1.86 -2.23 1.86 -3.76 L 1.86 -10.5 L 0.66 -10.5 L 0.66 -3.84 C 0.66 -1.65 2.46 0.15 4.65 0.15 Z M 18.33 0 L 19.95 0 L 22.77 -8.58 L 25.59 0 L 27.21 0 L 30.36 -10.5 L 29.1 -10.5 L 26.38 -1.43 L 23.4 -10.5 L 22.14 -10.5 L 19.16 -1.43 L 16.44 -10.5 L 15.18 -10.5 Z M 48.93 0 L 50.55 0 L 54.3 -10.5 L 53.04 -10.5 L 49.74 -1.26 L 46.44 -10.5 L 45.18 -10.5 Z M 60.87 -10.5 L 60.87 0 L 62.07 0 L 62.07 -10.5 Z M 69.72 -2.86 L 68.64 -2.38 C 69.3 -0.96 70.78 0.15 72.6 0.15 C 75.1 0.15 76.53 -1.47 76.53 -2.91 C 76.53 -4.96 74.34 -5.47 72.66 -5.94 C 71.1 -6.38 70 -6.71 70 -7.77 C 70 -8.87 71.19 -9.53 72.34 -9.53 C 74.2 -9.53 74.67 -8.73 75.01 -7.86 L 76.12 -8.28 C 75.75 -9.24 74.92 -10.65 72.34 -10.65 C 70.78 -10.65 68.8 -9.58 68.8 -7.77 C 68.8 -5.87 70.72 -5.31 72.33 -4.86 C 74.01 -4.39 75.33 -4.08 75.33 -2.91 C 75.33 -1.95 74.47 -0.97 72.6 -0.97 C 71.25 -0.97 70.26 -1.71 69.72 -2.86 Z M 83.1 -10.5 L 83.1 0 L 84.3 0 L 84.3 -10.5 Z M 90.87 -10.5 L 90.87 0 L 98.22 0 L 98.22 -1.13 L 92.07 -1.13 L 92.07 -4.69 L 96.72 -4.69 L 96.72 -5.82 L 92.07 -5.82 L 92.07 -9.38 L 98.22 -9.38 L 98.22 -10.5 Z M 113.04 -6 L 113.04 -4.95 L 118.02 -4.95 L 118.02 -6 Z M 138.24 -0.97 C 135.79 -0.97 134.04 -2.73 134.04 -5.25 C 134.04 -7.77 135.79 -9.53 138.24 -9.53 C 140.68 -9.53 142.44 -7.77 142.44 -5.25 C 142.44 -2.73 140.68 -0.97 138.24 -0.97 Z M 132.84 -5.25 C 132.84 -2.28 135.27 0.15 138.24 0.15 C 141.21 0.15 143.64 -2.28 143.64 -5.25 C 143.64 -8.22 141.21 -10.65 138.24 -10.65 C 135.27 -10.65 132.84 -8.22 132.84 -5.25 Z M 150.21 -10.5 L 150.21 0 L 151.41 0 L 151.41 -9.29 L 157.11 0 L 158.91 0 L 158.91 -10.5 L 157.71 -10.5 L 157.71 -1.21 L 152.01 -10.5 Z M 165.48 -1.13 L 165.48 0 L 173.28 0 L 173.28 -1.13 L 166.98 -1.13 L 173.28 -9.38 L 173.28 -10.5 L 165.48 -10.5 L 165.48 -9.38 L 171.78 -9.38 Z M 179.85 -10.5 L 179.85 0 L 187.2 0 L 187.2 -1.13 L 181.05 -1.13 L 181.05 -4.69 L 185.7 -4.69 L 185.7 -5.82 L 181.05 -5.82 L 181.05 -9.38 L 187.2 -9.38 L 187.2 -10.5 Z M 202.02 -10.5 L 202.02 0 L 203.22 0 L 203.22 -3.94 L 206.52 -3.94 C 208.32 -3.94 209.79 -5.42 209.79 -7.23 C 209.79 -9.03 208.32 -10.5 206.52 -10.5 Z M 203.22 -5.07 L 203.22 -9.38 L 206.44 -9.38 C 207.63 -9.38 208.59 -8.41 208.59 -7.23 C 208.59 -6.03 207.63 -5.07 206.44 -5.07 Z M 216.36 -10.5 L 216.36 0 L 223.71 0 L 223.71 -1.13 L 217.56 -1.13 L 217.56 -4.69 L 222.21 -4.69 L 222.21 -5.82 L 217.56 -5.82 L 217.56 -9.38 L 223.71 -9.38 L 223.71 -10.5 Z M 230.28 0 L 231.48 0 L 231.48 -4.39 L 233.34 -4.39 C 235.98 -4.39 236.86 -2.48 236.86 0 L 238.06 0 C 238.06 -1.86 237.51 -3.69 236.1 -4.71 C 237.1 -5.21 237.81 -6.25 237.81 -7.47 C 237.81 -9.12 236.43 -10.5 234.78 -10.5 L 230.28 -10.5 Z M 231.48 -5.52 L 231.48 -9.38 L 234.7 -9.38 C 235.75 -9.38 236.62 -8.5 236.62 -7.46 C 236.62 -6.39 235.75 -5.52 234.7 -5.52 Z M 244.63 0 L 245.83 0 L 245.83 -4.69 L 250.48 -4.69 L 250.48 -5.82 L 245.83 -5.82 L 245.83 -9.38 L 251.98 -9.38 L 251.98 -10.5 L 244.63 -10.5 Z M 258.56 -10.5 L 258.56 0 L 265.9 0 L 265.9 -1.13 L 259.75 -1.13 L 259.75 -4.69 L 264.4 -4.69 L 264.4 -5.82 L 259.75 -5.82 L 259.75 -9.38 L 265.9 -9.38 L 265.9 -10.5 Z M 277.88 0.15 C 280.09 0.15 282.03 -1.21 282.84 -3.15 L 281.59 -3.15 C 280.92 -1.8 279.57 -0.97 277.88 -0.97 C 275.43 -0.97 273.68 -2.73 273.68 -5.25 C 273.68 -7.77 275.43 -9.53 277.88 -9.53 C 279.23 -9.53 280.37 -8.98 281.12 -8.08 L 282 -8.73 C 281.01 -9.9 279.52 -10.65 277.88 -10.65 C 274.9 -10.65 272.48 -8.22 272.48 -5.25 C 272.48 -2.28 274.9 0.15 277.88 0.15 Z M 292.71 0 L 293.91 0 L 293.91 -9.38 L 297.21 -9.38 L 297.21 -10.5 L 289.41 -10.5 L 289.41 -9.38 L 292.71 -9.38 Z M 303.78 -10.5 L 303.78 0 L 304.98 0 L 304.98 -10.5 Z M 311.55 -10.5 L 311.55 0 L 318.9 0 L 318.9 -1.13 L 312.75 -1.13 L 312.75 -4.69 L 317.4 -4.69 L 317.4 -5.82 L 312.75 -5.82 L 312.75 -9.38 L 318.9 -9.38 L 318.9 -10.5 Z" stroke-linecap="round" />
</g>
</g>
</g>
</svg>